<?xml version="1.0" encoding="utf-8"?>
<!-- Generator: Adobe Illustrator 23.0.6, SVG Export Plug-In . SVG Version: 6.00 Build 0)  -->
<svg version="1.1" id="Layer_1" xmlns="http://www.w3.org/2000/svg" xmlns:xlink="http://www.w3.org/1999/xlink" x="0px" y="0px"
	 viewBox="0 0 1024 190" style="enable-background:new 0 0 1024 190;" xml:space="preserve">
<g>
	<g>
		<path d="M5.9,119.3l35.9-2.9c0.8,7.5,2.4,13.2,4.7,17.1c3.9,6.3,9.4,9.5,16.7,9.5c5.4,0,9.5-1.6,12.5-4.9c2.9-3.2,4.4-7,4.4-11.2
			c0-4.1-1.4-7.7-4.2-10.9c-2.8-3.2-9.2-6.2-19.3-9.1C40,102.2,28.2,95.9,21.2,88C14,80.1,10.5,70,10.5,57.8c0-8,1.8-15.6,5.5-22.8
			c3.6-7.1,9.1-12.8,16.4-16.8c7.3-4.1,17.3-6.1,30-6.1c15.6,0,27.5,3.7,35.7,11.1c8.2,7.4,13.1,19.2,14.6,35.4l-35.6,2.7
			c-0.9-7-2.9-12.2-6-15.4c-3-3.2-7.2-4.8-12.5-4.8c-4.4,0-7.7,1.2-9.9,3.6c-2.2,2.4-3.3,5.3-3.3,8.7c0,2.5,0.9,4.7,2.7,6.7
			c1.8,2.1,6,4,12.7,5.8c16.5,4.5,28.3,9.2,35.4,13.8c7.1,4.7,12.3,10.4,15.6,17.3c3.2,6.9,4.9,14.6,4.9,23.1
			c0,10-2.2,19.3-6.5,27.7c-4.3,8.5-10.4,14.9-18.2,19.2c-7.8,4.4-17.6,6.6-29.4,6.6c-20.8,0-35.1-5.1-43.1-15.4
			C11.5,148.1,7,135.1,5.9,119.3z"/>
		<path d="M137.2,14.7H175V171h-37.8V14.7z"/>
		<path d="M193.5,14.7h114.7v38.6h-38.5V171H232V53.3h-38.5V14.7z"/>
		<path d="M325.2,14.7h101.1v33.4H363V73h58.7v31.9H363v30.8h65.1V171h-103V14.7z"/>
		<path d="M505.3,14.7h37.7v117.8H602V171h-96.6V14.7z"/>
		<path d="M611.5,93c0-25.5,5.6-45.4,16.7-59.6c11.1-14.2,26.6-21.3,46.4-21.3c20.3,0,36,7,47,20.9c11,14,16.5,33.5,16.5,58.7
			c0,18.3-2.4,33.2-7.2,44.9c-4.8,11.7-11.7,20.8-20.8,27.3s-20.4,9.8-33.9,9.8c-13.8,0-25.2-2.8-34.2-8.4
			c-9-5.6-16.3-14.5-21.9-26.7C614.3,126.5,611.5,111.3,611.5,93z M649.2,93.2c0,15.8,2.3,27.1,6.9,34c4.6,6.9,10.8,10.3,18.7,10.3
			c8.1,0,14.4-3.4,18.8-10.1c4.4-6.8,6.7-18.9,6.7-36.4c0-14.7-2.3-25.5-7-32.3c-4.6-6.8-10.9-10.2-18.9-10.2
			c-7.6,0-13.7,3.4-18.3,10.3C651.5,65.9,649.2,77.3,649.2,93.2z"/>
		<path d="M819.7,114.4V81.9H878v66.6c-11.2,9.7-21,16.4-29.6,19.9c-8.6,3.5-18.8,5.3-30.5,5.3c-14.5,0-26.3-3.2-35.4-9.5
			c-9.1-6.3-16.2-15.7-21.2-28.3c-5-12.5-7.5-26.9-7.5-43.1c0-17.1,2.7-31.9,8.2-44.5c5.5-12.6,13.5-22.2,24.2-28.7
			c8.3-5,19.4-7.6,33.4-7.6c13.5,0,23.6,1.6,30.3,4.7c6.7,3.1,12.2,8,16.7,14.6c4.4,6.6,7.7,14.9,10,25l-36.4,8.3
			c-1.5-5.9-4-10.4-7.6-13.5c-3.6-3.1-8.2-4.7-13.7-4.7c-8.3,0-14.9,3.7-19.8,11c-4.9,7.4-7.4,19-7.4,34.9c0,16.9,2.5,29,7.5,36.2
			c5,7.2,11.9,10.9,20.8,10.9c4.2,0,8.2-0.8,12.1-2.3c3.8-1.6,8.2-4.2,13.2-8v-14.7H819.7z"/>
		<path d="M895.6,93c0-25.5,5.6-45.4,16.7-59.6c11.1-14.2,26.6-21.3,46.4-21.3c20.3,0,36,7,47,20.9c11,14,16.5,33.5,16.5,58.7
			c0,18.3-2.4,33.2-7.2,44.9c-4.8,11.7-11.7,20.8-20.8,27.3s-20.4,9.8-33.9,9.8c-13.8,0-25.2-2.8-34.2-8.4
			c-9-5.6-16.3-14.5-21.9-26.7C898.5,126.5,895.6,111.3,895.6,93z M933.4,93.2c0,15.8,2.3,27.1,6.9,34c4.6,6.9,10.8,10.3,18.7,10.3
			c8.1,0,14.4-3.4,18.8-10.1c4.4-6.8,6.7-18.9,6.7-36.4c0-14.7-2.3-25.5-7-32.3c-4.6-6.8-10.9-10.2-18.9-10.2
			c-7.6,0-13.7,3.4-18.3,10.3C935.7,65.9,933.4,77.3,933.4,93.2z"/>
	</g>
</g>
</svg>
