<svg xmlns="http://www.w3.org/2000/svg" viewBox="0 0 288 132.49"><defs><style>.cls-1{fill:#fff;}.cls-2{font-size:49.49px;fill:#505d75;font-family:AbrilFatface-Regular, Abril Fatface;letter-spacing:0.11em;}.cls-3{letter-spacing:0.12em;}.cls-4{letter-spacing:0.07em;}.cls-5{letter-spacing:0.14em;}.cls-6{letter-spacing:0.11em;}.cls-7{letter-spacing:0.12em;}.cls-8{letter-spacing:0.1em;}.cls-9{letter-spacing:0.1em;}.cls-10{letter-spacing:0.14em;}.cls-11{letter-spacing:0.09em;}.cls-12{letter-spacing:0.12em;}.cls-13{letter-spacing:0.12em;}.cls-14{letter-spacing:0.11em;}.cls-15{letter-spacing:0.09em;}</style></defs><title>mt-fourth-estate-logo</title><g id="L1sm"><polygon class="cls-1" points="0 0 0 52.36 80.13 132.49 288 132.49 288 0 0 0"/><text class="cls-2" transform="translate(75.69 39.14) scale(0.7)">MO<tspan class="cls-3" x="89.19" y="0">N</tspan><tspan class="cls-4" x="128.25" y="0">T</tspan><tspan class="cls-5" x="165.47" y="0">A</tspan><tspan class="cls-6" x="206.7" y="0">N</tspan><tspan class="cls-7" x="245.33" y="0">A</tspan><tspan class="cls-8"><tspan x="45.83" y="52.96">F</tspan><tspan class="cls-9" x="80.24" y="52.96">O</tspan><tspan class="cls-10" x="122.34" y="52.96">U</tspan><tspan class="cls-11" x="163.02" y="52.96">R</tspan><tspan class="cls-12" x="202.85" y="52.96">T</tspan><tspan class="cls-13" x="242.61" y="52.96">H</tspan></tspan><tspan class="cls-14"><tspan x="63.38" y="105.92">E</tspan><tspan class="cls-15" x="99.81" y="105.92">S</tspan><tspan class="cls-4" x="134.05" y="105.92">TA</tspan><tspan class="cls-12" x="209.04" y="105.92">T</tspan><tspan class="cls-13" x="248.8" y="105.92">E</tspan></tspan></text><text class="cls-2" transform="translate(75.69 39.14) scale(0.7)">MO<tspan class="cls-3" x="89.19" y="0">N</tspan><tspan class="cls-4" x="128.25" y="0">T</tspan><tspan class="cls-5" x="165.47" y="0">A</tspan><tspan class="cls-6" x="206.7" y="0">N</tspan><tspan class="cls-7" x="245.33" y="0">A</tspan><tspan class="cls-8"><tspan x="45.83" y="52.96">F</tspan><tspan class="cls-9" x="80.24" y="52.96">O</tspan><tspan class="cls-10" x="122.34" y="52.96">U</tspan><tspan class="cls-11" x="163.02" y="52.96">R</tspan><tspan class="cls-12" x="202.85" y="52.96">T</tspan><tspan class="cls-13" x="242.61" y="52.96">H</tspan></tspan><tspan class="cls-14"><tspan x="63.38" y="105.92">E</tspan><tspan class="cls-15" x="99.81" y="105.92">S</tspan><tspan class="cls-4" x="134.05" y="105.92">TA</tspan><tspan class="cls-12" x="209.04" y="105.92">T</tspan><tspan class="cls-13" x="248.8" y="105.92">E</tspan></tspan></text></g></svg>