<?xml version="1.0" encoding="utf-8"?>
<!-- Generator: Adobe Illustrator 23.0.6, SVG Export Plug-In . SVG Version: 6.00 Build 0)  -->
<svg version="1.2" baseProfile="tiny" id="Layer_1" xmlns="http://www.w3.org/2000/svg" xmlns:xlink="http://www.w3.org/1999/xlink"
	 x="0px" y="0px" viewBox="0 0 1400 800" xml:space="preserve">
<rect y="1" fill="#444466" width="1400" height="800"/>
<g>
	<path fill="#FFFFFF" d="M176.875,175.883v-37.706h75.496v77.267c-14.452,11.292-27.232,18.977-38.341,23.057
		c-11.108,4.08-24.285,6.12-39.527,6.12c-18.767,0-34.064-3.667-45.891-11.003c-11.828-7.334-20.996-18.254-27.502-32.761
		c-6.508-14.505-9.76-31.154-9.76-49.945c0-19.78,3.559-36.984,10.677-51.614c7.118-14.628,17.543-25.733,31.277-33.317
		c10.713-5.851,25.129-8.777,43.249-8.777c17.472,0,30.539,1.813,39.204,5.439c8.664,3.627,15.854,9.252,21.57,16.875
		c5.716,7.625,10.012,17.289,12.889,28.991l-47.131,9.643c-1.941-6.84-5.231-12.073-9.869-15.7
		c-4.638-3.626-10.552-5.44-17.741-5.44c-10.715,0-19.252,4.265-25.615,12.795s-9.545,22.027-9.545,40.488
		c0,19.616,3.217,33.626,9.653,42.033c6.434,8.407,15.404,12.61,26.909,12.61c5.463,0,10.677-0.906,15.639-2.72
		c4.961-1.812,10.64-4.902,17.041-9.272v-17.061H176.875z"/>
	<path fill="#FFFFFF" d="M282.031,241.529V60.292h81.428c15.099,0,26.64,1.484,34.621,4.451c7.981,2.967,14.415,8.469,19.305,16.504
		c4.889,8.036,7.334,17.823,7.334,29.361c0,10.056-1.871,18.729-5.612,26.023c-3.741,7.294-8.886,13.209-15.431,17.74
		c-4.172,2.886-9.892,5.275-17.158,7.17c5.819,2.229,10.059,4.457,12.718,6.682c1.796,1.486,4.4,4.661,7.814,9.529
		c3.413,4.868,5.694,8.621,6.843,11.26l23.66,52.516h-55.205l-26.115-55.385c-3.308-7.17-6.255-11.826-8.844-13.97
		c-3.524-2.801-7.514-4.204-11.972-4.204h-4.314v73.558H282.031z M331.104,133.727h20.6c2.228,0,6.542-0.823,12.942-2.473
		c3.235-0.742,5.878-2.637,7.927-5.687c2.049-3.048,3.074-6.552,3.074-10.508c0-5.851-1.618-10.342-4.854-13.476
		c-3.235-3.131-9.312-4.698-18.227-4.698h-21.462V133.727z"/>
	<path fill="#FFFFFF" d="M550.396,211.612h-55.468l-7.706,29.917h-49.885l59.426-181.237h53.292l59.413,181.237h-51.162
		L550.396,211.612z M540.262,172.422l-17.452-65.151l-17.27,65.151H540.262z"/>
	<path fill="#FFFFFF" d="M590.271,60.292h54.27l31.855,61.142l31.92-61.142h53.979l-61.476,105.331v75.907h-48.965v-75.907
		L590.271,60.292z"/>
	<path fill="#FFFFFF" d="M779.982,60.292h48.965v181.237h-48.965V60.292z"/>
	<path fill="#FFFFFF" d="M864.322,60.292h45.622l59.534,100.27V60.292h46.053v181.237h-46.053l-59.211-99.512v99.512h-45.945V60.292
		z"/>
	<path fill="#FFFFFF" d="M1127.48,175.883v-37.706h75.497v77.267c-14.452,11.292-27.233,18.977-38.342,23.057
		s-24.285,6.12-39.527,6.12c-18.767,0-34.064-3.667-45.892-11.003c-11.828-7.334-20.995-18.254-27.502-32.761
		c-6.508-14.505-9.761-31.154-9.761-49.945c0-19.78,3.56-36.984,10.678-51.614c7.118-14.628,17.543-25.733,31.277-33.317
		c10.712-5.851,25.129-8.777,43.248-8.777c17.472,0,30.539,1.813,39.204,5.439c8.664,3.627,15.854,9.252,21.57,16.875
		c5.717,7.625,10.012,17.289,12.889,28.991l-47.132,9.643c-1.94-6.84-5.23-12.073-9.868-15.7c-4.638-3.626-10.553-5.44-17.741-5.44
		c-10.715,0-19.252,4.265-25.615,12.795s-9.545,22.027-9.545,40.488c0,19.616,3.217,33.626,9.653,42.033
		c6.434,8.407,15.404,12.61,26.908,12.61c5.464,0,10.678-0.906,15.639-2.72c4.962-1.812,10.641-4.902,17.041-9.272v-17.061H1127.48z
		"/>
	<path fill="#FFFFFF" d="M97.173,364.117h81.212c17.688,0,30.935,4.822,39.744,14.464c8.807,9.643,13.212,23.366,13.212,41.167
		c0,18.297-4.8,32.598-14.398,42.899c-9.599,10.303-24.25,15.453-43.95,15.453h-26.747v67.253H97.173V364.117z M146.246,441.384
		h11.972c9.418,0,16.033-1.873,19.845-5.625c3.81-3.749,5.716-8.549,5.716-14.402c0-5.687-1.655-10.508-4.961-14.464
		c-3.308-3.956-9.528-5.935-18.659-5.935h-13.913V441.384z"/>
	<path fill="#FFFFFF" d="M335.34,515.437h-55.468l-7.706,29.918h-49.885l59.426-181.237H335l59.413,181.237H343.25L335.34,515.437z
		 M325.206,476.247l-17.452-65.151l-17.27,65.151H325.206z"/>
	<path fill="#FFFFFF" d="M411.885,364.117h48.965v181.237h-48.965V364.117z"/>
	<path fill="#FFFFFF" d="M496.225,364.117h45.621l59.534,100.27v-100.27h46.053v181.237H601.38l-59.21-99.512v99.512h-45.945
		V364.117z"/>
	<path fill="#FFFFFF" d="M671.376,485.396l46.483-3.338c1.006,8.653,3.056,15.248,6.148,19.78
		c5.031,7.336,12.223,11.003,21.57,11.003c6.973,0,12.35-1.874,16.123-5.625c3.775-3.75,5.662-8.098,5.662-13.043
		c0-4.697-1.797-8.901-5.393-12.61c-3.596-3.708-11.936-7.21-25.021-10.508c-21.427-5.521-36.706-12.857-45.836-22.006
		c-9.205-9.148-13.806-20.81-13.806-34.986c0-9.312,2.354-18.111,7.064-26.394c4.708-8.283,11.791-14.793,21.247-19.533
		c9.453-4.738,22.414-7.108,38.881-7.108c20.203,0,35.607,4.308,46.213,12.919c10.605,8.613,16.914,22.314,18.93,41.106
		l-46.053,3.091c-1.225-8.159-3.795-14.094-7.713-17.803c-3.92-3.708-9.328-5.563-16.23-5.563c-5.682,0-9.961,1.381-12.834,4.142
		c-2.877,2.762-4.314,6.12-4.314,10.076c0,2.886,1.186,5.481,3.559,7.788c2.301,2.392,7.766,4.617,16.393,6.676
		c21.355,5.275,36.652,10.613,45.893,16.01c9.238,5.399,15.961,12.097,20.168,20.09c4.205,7.995,6.309,16.937,6.309,26.827
		c0,11.62-2.805,22.336-8.412,32.143c-5.607,9.81-13.445,17.246-23.512,22.314c-10.066,5.069-22.756,7.604-38.072,7.604
		c-26.892,0-45.513-5.935-55.867-17.803C678.602,518.774,672.741,503.692,671.376,485.396z"/>
	<path fill="#FFFFFF" d="M910.268,414.062h46.915v50.44h-46.915V414.062z M910.268,494.915h46.915v50.439h-46.915V494.915z"/>
	<path fill="#FFFFFF" d="M975.303,459.805h63.848v38.942h-63.848V459.805z"/>
	<path fill="#FFFFFF" d="M1093.939,361.027h27.395c-9.421,23.902-16.215,45.989-20.385,66.264
		c-3.523,17.227-5.284,35.604-5.284,55.138c0,37.665,8.556,76.401,25.669,116.209h-27.395c-13.95-22.666-23.746-43.167-29.39-61.505
		c-5.646-18.337-8.467-37.561-8.467-57.672c0-20.85,2.966-40.673,8.898-59.464C1070.913,401.205,1080.565,381.549,1093.939,361.027z
		"/>
	<path fill="#FFFFFF" d="M89.824,617.869h39.235v23.108h-15.502v90.752h15.502v23.109H89.824V617.869z"/>
	<path fill="#FFFFFF" d="M141.499,617.869h48.039c10.463,0,18.299,2.852,23.509,8.556c5.209,5.704,7.815,13.821,7.815,24.352
		c0,10.823-2.839,19.282-8.517,25.376c-5.678,6.095-14.345,9.141-25.998,9.141h-15.821v39.782h-29.028V617.869z M170.527,663.574
		h7.081c5.571,0,9.484-1.108,11.739-3.327c2.254-2.218,3.381-5.058,3.381-8.52c0-3.364-0.979-6.216-2.935-8.556
		c-1.957-2.341-5.636-3.511-11.037-3.511h-8.229V663.574z"/>
	<path fill="#FFFFFF" d="M236.365,725.075V617.869h48.167c8.932,0,15.758,0.878,20.479,2.633c4.721,1.755,8.527,5.009,11.42,9.763
		c2.892,4.753,4.338,10.543,4.338,17.367c0,5.949-1.106,11.079-3.319,15.394c-2.213,4.315-5.256,7.813-9.128,10.494
		c-2.468,1.707-5.852,3.121-10.149,4.241c3.442,1.319,5.95,2.637,7.523,3.953c1.062,0.878,2.603,2.757,4.622,5.637
		c2.019,2.879,3.368,5.099,4.048,6.66l13.995,31.064h-32.655l-15.448-32.762c-1.957-4.241-3.7-6.995-5.231-8.264
		c-2.084-1.656-4.445-2.486-7.082-2.486h-2.552v43.512H236.365z M265.393,661.308h12.185c1.318,0,3.87-0.487,7.656-1.463
		c1.914-0.438,3.477-1.56,4.689-3.364c1.212-1.803,1.818-3.875,1.818-6.216c0-3.461-0.957-6.117-2.871-7.971
		c-1.914-1.853-5.508-2.779-10.782-2.779h-12.695V661.308z"/>
	<path fill="#FFFFFF" d="M331.741,671.545c0-17.501,4.252-31.127,12.759-40.878c8.506-9.751,20.352-14.626,35.535-14.626
		c15.566,0,27.56,4.79,35.981,14.369c8.421,9.58,12.632,22.999,12.632,40.258c0,12.53-1.84,22.805-5.519,30.823
		c-3.679,8.021-8.996,14.26-15.949,18.721c-6.954,4.461-15.621,6.691-25.998,6.691c-10.548,0-19.277-1.925-26.188-5.777
		c-6.912-3.851-12.515-9.945-16.811-18.282C333.888,694.508,331.741,684.075,331.741,671.545z M360.641,671.691
		c0,10.823,1.754,18.6,5.263,23.328c3.509,4.729,8.283,7.094,14.323,7.094c6.209,0,11.015-2.315,14.418-6.947
		c3.402-4.632,5.104-12.944,5.104-24.938c0-10.091-1.776-17.465-5.327-22.121c-3.552-4.655-8.369-6.983-14.45-6.983
		c-5.828,0-10.505,2.365-14.035,7.094C362.406,652.946,360.641,660.771,360.641,671.691z"/>
	<path fill="#FFFFFF" d="M483.132,617.869h28.963v58.244c0,12.229-0.947,21.534-2.839,27.917c-1.893,6.383-5.7,11.79-11.419,16.223
		c-5.721,4.434-13.046,6.65-21.978,6.65c-9.442,0-16.758-1.463-21.946-4.388c-5.189-2.925-9.198-7.203-12.026-12.834
		c-2.829-5.631-4.498-12.59-5.008-20.878l27.624-4.314c0.042,4.729,0.404,8.239,1.084,10.53c0.68,2.292,1.828,4.145,3.445,5.558
		c1.105,0.927,2.679,1.39,4.721,1.39c3.232,0,5.603-1.376,7.113-4.129c1.509-2.751,2.265-7.392,2.265-13.918V617.869z"/>
	<path fill="#FFFFFF" d="M531.298,617.869h77.449v22.889h-48.485v17.039h44.977v21.865h-44.977v21.135h49.889v24.278h-78.853
		V617.869z"/>
	<path fill="#FFFFFF" d="M687.983,681.198l25.327,8.775c-1.701,8.143-4.381,14.943-8.038,20.402
		c-3.659,5.461-8.198,9.58-13.621,12.359c-5.422,2.778-12.324,4.168-20.702,4.168c-10.166,0-18.469-1.693-24.913-5.079
		c-6.443-3.386-12.004-9.341-16.683-17.867c-4.679-8.526-7.018-19.439-7.018-32.741c0-17.733,4.115-31.362,12.345-40.888
		c8.229-9.524,19.873-14.287,34.929-14.287c11.78,0,21.042,2.73,27.783,8.19c6.741,5.46,11.75,13.847,15.025,25.156l-25.519,6.508
		c-0.894-3.266-1.83-5.654-2.807-7.166c-1.617-2.534-3.595-4.485-5.933-5.851c-2.34-1.364-4.956-2.048-7.847-2.048
		c-6.55,0-11.569,3.021-15.056,9.058c-2.638,4.48-3.956,11.517-3.956,21.108c0,11.882,1.573,20.026,4.721,24.433
		c3.147,4.407,7.57,6.61,13.27,6.61c5.529,0,9.708-1.779,12.536-5.339C684.655,693.144,686.708,687.976,687.983,681.198z"/>
	<path fill="#FFFFFF" d="M720.775,617.869h87.848v26.473h-29.474v80.733h-28.9v-80.733h-29.474V617.869z"/>
	<path fill="#FFFFFF" d="M865.274,617.869h28.9v80.807h45.104v26.399h-74.005V617.869z"/>
	<path fill="#FFFFFF" d="M946.553,671.545c0-17.501,4.252-31.127,12.759-40.878c8.506-9.751,20.352-14.626,35.535-14.626
		c15.566,0,27.561,4.79,35.981,14.369c8.421,9.58,12.632,22.999,12.632,40.258c0,12.53-1.841,22.805-5.519,30.823
		c-3.68,8.021-8.995,14.26-15.949,18.721s-15.62,6.691-25.997,6.691c-10.549,0-19.278-1.925-26.188-5.777
		c-6.912-3.851-12.516-9.945-16.811-18.282C948.699,694.508,946.553,684.075,946.553,671.545z M975.452,671.691
		c0,10.823,1.755,18.6,5.264,23.328c3.509,4.729,8.282,7.094,14.322,7.094c6.209,0,11.015-2.315,14.418-6.947
		c3.402-4.632,5.104-12.944,5.104-24.938c0-10.091-1.776-17.465-5.327-22.121c-3.552-4.655-8.368-6.983-14.449-6.983
		c-5.828,0-10.506,2.365-14.036,7.094S975.452,660.771,975.452,671.691z"/>
	<path fill="#FFFFFF" d="M1106.045,686.244v-22.305h44.658v45.706c-8.549,6.68-16.109,11.225-22.681,13.638
		c-6.57,2.414-14.365,3.62-23.381,3.62c-11.101,0-20.15-2.169-27.146-6.509c-6.997-4.338-12.42-10.798-16.269-19.379
		c-3.85-8.58-5.773-18.428-5.773-29.544c0-11.7,2.105-21.876,6.315-30.53c4.211-8.653,10.377-15.223,18.501-19.708
		c6.337-3.461,14.865-5.192,25.583-5.192c10.335,0,18.064,1.073,23.19,3.218c5.124,2.146,9.378,5.473,12.759,9.981
		c3.382,4.511,5.923,10.227,7.624,17.148l-27.879,5.704c-1.148-4.046-3.095-7.141-5.838-9.287
		c-2.743-2.145-6.242-3.218-10.494-3.218c-6.338,0-11.388,2.523-15.152,7.569c-3.764,5.046-5.646,13.029-5.646,23.949
		c0,11.604,1.902,19.891,5.71,24.863c3.806,4.973,9.111,7.46,15.917,7.46c3.231,0,6.315-0.536,9.251-1.609
		c2.935-1.071,6.294-2.9,10.079-5.484v-10.092H1106.045z"/>
	<path fill="#FFFFFF" d="M1164.228,671.545c0-17.501,4.252-31.127,12.759-40.878c8.506-9.751,20.352-14.626,35.535-14.626
		c15.566,0,27.561,4.79,35.981,14.369c8.421,9.58,12.632,22.999,12.632,40.258c0,12.53-1.841,22.805-5.519,30.823
		c-3.68,8.021-8.995,14.26-15.949,18.721s-15.62,6.691-25.997,6.691c-10.549,0-19.278-1.925-26.188-5.777
		c-6.912-3.851-12.516-9.945-16.811-18.282C1166.374,694.508,1164.228,684.075,1164.228,671.545z M1193.127,671.691
		c0,10.823,1.755,18.6,5.264,23.328c3.509,4.729,8.282,7.094,14.322,7.094c6.209,0,11.015-2.315,14.418-6.947
		c3.402-4.632,5.104-12.944,5.104-24.938c0-10.091-1.776-17.465-5.327-22.121c-3.552-4.655-8.368-6.983-14.449-6.983
		c-5.828,0-10.506,2.365-14.036,7.094S1193.127,660.771,1193.127,671.691z"/>
	<path fill="#FFFFFF" d="M1309.365,754.839h-39.235v-23.109h15.503v-90.752h-15.503v-23.108h39.235V754.839z"/>
</g>
</svg>
