<?xml version="1.0" encoding="utf-8"?>
<!-- Generator: Adobe Illustrator 23.0.6, SVG Export Plug-In . SVG Version: 6.00 Build 0)  -->
<svg version="1.2" baseProfile="tiny" id="Layer_1" xmlns="http://www.w3.org/2000/svg" xmlns:xlink="http://www.w3.org/1999/xlink"
	 x="0px" y="0px" viewBox="0 0 1400 800" xml:space="preserve">
<rect y="1" fill="#444466" width="1400" height="800"/>
<g>
	<path fill="#FFFFFF" d="M189.034,53.697h77.167c16.807,0,29.394,3.997,37.764,11.99c8.368,7.994,12.554,19.369,12.554,34.126
		c0,15.167-4.561,27.021-13.681,35.561c-9.121,8.541-23.042,12.81-41.761,12.81h-25.415v55.749h-46.628V53.697z M235.663,117.747
		h11.375c8.949,0,15.234-1.553,18.856-4.663c3.621-3.108,5.432-7.087,5.432-11.939c0-4.714-1.572-8.711-4.714-11.99
		c-3.144-3.279-9.054-4.919-17.729-4.919h-13.22V117.747z"/>
	<path fill="#FFFFFF" d="M341.422,203.933V53.697h77.373c14.347,0,25.312,1.23,32.896,3.689s13.697,7.02,18.344,13.681
		c4.646,6.661,6.969,14.774,6.969,24.339c0,8.336-1.777,15.526-5.332,21.572c-3.555,6.046-8.443,10.949-14.663,14.706
		c-3.965,2.393-9.399,4.373-16.304,5.944c5.529,1.848,9.558,3.694,12.085,5.539c1.707,1.231,4.181,3.864,7.425,7.899
		c3.243,4.035,5.411,7.146,6.503,9.333l22.481,43.533h-52.456l-24.814-45.911c-3.143-5.944-5.944-9.803-8.403-11.58
		c-3.348-2.322-7.14-3.484-11.375-3.484h-4.099v60.976H341.422z M388.05,114.57h19.574c2.117,0,6.216-0.682,12.298-2.049
		c3.074-0.615,5.585-2.186,7.532-4.714c1.947-2.526,2.92-5.431,2.92-8.71c0-4.851-1.537-8.573-4.611-11.17
		c-3.075-2.596-8.849-3.895-17.319-3.895H388.05V114.57z"/>
	<path fill="#FFFFFF" d="M494.63,128.917c0-24.526,6.831-43.621,20.496-57.286c13.663-13.664,32.691-20.496,57.081-20.496
		c25.005,0,44.271,6.712,57.799,20.137c13.527,13.425,20.291,32.23,20.291,56.416c0,17.559-2.956,31.958-8.864,43.195
		c-5.91,11.239-14.45,19.983-25.62,26.235s-25.092,9.377-41.761,9.377c-16.944,0-30.966-2.698-42.068-8.096
		c-11.103-5.396-20.104-13.938-27.003-25.62C498.079,161.096,494.63,146.477,494.63,128.917z M541.053,129.122
		c0,15.167,2.818,26.065,8.455,32.691c5.636,6.627,13.305,9.94,23.007,9.94c9.974,0,17.694-3.244,23.161-9.736
		c5.465-6.49,8.198-18.139,8.198-34.945c0-14.143-2.854-24.475-8.557-31c-5.705-6.523-13.442-9.787-23.212-9.787
		c-9.361,0-16.875,3.314-22.545,9.94C543.887,102.854,541.053,113.819,541.053,129.122z"/>
	<path fill="#FFFFFF" d="M737.814,53.697h46.526v81.622c0,17.137-1.521,30.177-4.56,39.122c-3.041,8.944-9.156,16.521-18.345,22.734
		c-9.189,6.213-20.957,9.319-35.304,9.319c-15.168,0-26.919-2.05-35.253-6.149c-8.336-4.099-14.775-10.094-19.318-17.985
		c-4.544-7.891-7.225-17.643-8.044-29.258l44.374-6.046c0.067,6.627,0.648,11.547,1.742,14.757c1.092,3.212,2.938,5.808,5.534,7.788
		c1.776,1.299,4.304,1.947,7.583,1.947c5.191,0,9.001-1.928,11.427-5.785c2.425-3.856,3.638-10.358,3.638-19.505V53.697z"/>
	<path fill="#FFFFFF" d="M815.188,53.697h124.411v32.076h-77.885v23.878h72.248v30.642h-72.248v29.617h80.139v34.023H815.188V53.697
		z"/>
	<path fill="#FFFFFF" d="M1066.879,142.445l40.685,12.297c-2.733,11.411-7.037,20.941-12.912,28.592
		c-5.877,7.652-13.169,13.425-21.88,17.319c-8.711,3.894-19.796,5.841-33.255,5.841c-16.329,0-29.668-2.373-40.019-7.118
		s-19.283-13.09-26.799-25.039c-7.516-11.949-11.272-27.242-11.272-45.882c0-24.852,6.61-43.951,19.83-57.299
		c13.22-13.348,31.923-20.022,56.107-20.022c18.924,0,33.801,3.827,44.631,11.478c10.827,7.652,18.872,19.404,24.134,35.253
		l-40.992,9.121c-1.435-4.576-2.938-7.924-4.509-10.043c-2.598-3.551-5.774-6.285-9.531-8.198c-3.758-1.912-7.96-2.87-12.604-2.87
		c-10.522,0-18.584,4.232-24.186,12.693c-4.237,6.278-6.354,16.139-6.354,29.58c0,16.651,2.526,28.065,7.583,34.24
		c5.056,6.176,12.16,9.263,21.316,9.263c8.88,0,15.593-2.493,20.137-7.481C1061.532,159.184,1064.829,151.941,1066.879,142.445z"/>
	<path fill="#FFFFFF" d="M1119.553,53.697h141.115v37.098h-47.346v113.138h-46.424V90.794h-47.346V53.697z"/>
	<path fill="#FFFFFF" d="M738.225,348.184c0-4.577-1.69-8.488-5.072-11.734c-3.382-3.244-7.635-4.868-12.759-4.868
		c-5.329,0-9.685,1.675-13.065,5.022c-3.383,3.348-5.654,9.258-6.815,17.729l-41.812-3.382c1.64-11.75,4.645-20.922,9.018-27.516
		c4.372-6.592,10.538-11.647,18.498-15.167c7.958-3.518,18.975-5.278,33.049-5.278c14.689,0,26.115,1.675,34.28,5.021
		c8.163,3.348,14.586,8.49,19.267,15.423c4.679,6.935,7.02,14.706,7.02,23.314c0,9.156-2.682,17.9-8.045,26.235
		c-5.363,8.336-15.115,17.49-29.258,27.464c-8.403,5.808-14.023,9.874-16.857,12.195c-2.836,2.324-6.167,5.364-9.992,9.121h65.178
		v34.023H655.626c1.435-12.365,5.791-23.996,13.066-34.895c7.276-10.896,20.922-23.758,40.94-38.583"/>
	<path fill="#FFFFFF" d="M405.011,557.407h46.423v113.24h72.454v36.995H405.011V557.407z"/>
	<path fill="#FFFFFF" d="M535.571,632.627c0-24.526,6.831-43.621,20.496-57.286c13.663-13.663,32.691-20.496,57.081-20.496
		c25.005,0,44.271,6.713,57.799,20.138s20.291,32.229,20.291,56.415c0,17.56-2.956,31.958-8.864,43.195
		c-5.91,11.239-14.45,19.983-25.62,26.235c-11.17,6.251-25.092,9.376-41.761,9.376c-16.944,0-30.966-2.697-42.068-8.096
		c-11.103-5.396-20.104-13.938-27.003-25.62C539.02,664.806,535.571,650.187,535.571,632.627z M581.994,632.832
		c0,15.167,2.818,26.065,8.455,32.691c5.636,6.627,13.305,9.94,23.007,9.94c9.974,0,17.694-3.244,23.161-9.735
		c5.465-6.49,8.198-18.14,8.198-34.946c0-14.142-2.854-24.475-8.557-31c-5.705-6.523-13.442-9.787-23.212-9.787
		c-9.361,0-16.875,3.315-22.545,9.941C584.828,606.563,581.994,617.529,581.994,632.832z"/>
	<path fill="#FFFFFF" d="M791.771,653.226V621.97h71.735v64.05c-13.732,9.36-25.876,15.73-36.432,19.112s-23.075,5.072-37.56,5.072
		c-17.831,0-32.367-3.039-43.604-9.12c-11.239-6.08-19.95-15.132-26.132-27.157c-6.185-12.023-9.275-25.825-9.275-41.402
		c0-16.396,3.383-30.657,10.146-42.785c6.764-12.126,16.668-21.332,29.719-27.618c10.18-4.851,23.877-7.276,41.094-7.276
		c16.603,0,29.019,1.504,37.252,4.509c8.232,3.008,15.064,7.67,20.496,13.989c5.432,6.32,9.513,14.331,12.246,24.031l-44.783,7.993
		c-1.845-5.67-4.971-10.008-9.377-13.015c-4.406-3.006-10.027-4.509-16.858-4.509c-10.181,0-18.292,3.535-24.339,10.606
		s-9.069,18.259-9.069,33.562c0,16.261,3.057,27.874,9.172,34.843c6.114,6.969,14.638,10.453,25.569,10.453
		c5.19,0,10.145-0.751,14.859-2.255c4.714-1.502,10.109-4.063,16.191-7.686v-14.143H791.771z"/>
	<path fill="#FFFFFF" d="M885.232,632.627c0-24.526,6.831-43.621,20.496-57.286c13.664-13.663,32.691-20.496,57.082-20.496
		c25.005,0,44.271,6.713,57.799,20.138s20.291,32.229,20.291,56.415c0,17.56-2.956,31.958-8.865,43.195
		c-5.91,11.239-14.449,19.983-25.62,26.235c-11.17,6.251-25.091,9.376-41.76,9.376c-16.945,0-30.967-2.697-42.068-8.096
		c-11.104-5.396-20.104-13.938-27.004-25.62C888.682,664.806,885.232,650.187,885.232,632.627z M931.656,632.832
		c0,15.167,2.818,26.065,8.455,32.691c5.636,6.627,13.305,9.94,23.006,9.94c9.975,0,17.694-3.244,23.161-9.735
		c5.465-6.49,8.198-18.14,8.198-34.946c0-14.142-2.854-24.475-8.557-31c-5.706-6.523-13.443-9.787-23.212-9.787
		c-9.361,0-16.876,3.315-22.546,9.941C934.49,606.563,931.656,617.529,931.656,632.832z"/>
</g>
</svg>
