<?xml version="1.0" encoding="utf-8"?>
<!-- Generator: Adobe Illustrator 23.0.6, SVG Export Plug-In . SVG Version: 6.00 Build 0)  -->
<svg version="1.1" id="Layer_1" xmlns="http://www.w3.org/2000/svg" xmlns:xlink="http://www.w3.org/1999/xlink" x="0px" y="0px"
	 viewBox="0 0 600 175" style="enable-background:new 0 0 600 175;" xml:space="preserve">
<style type="text/css">
	.st0{fill:#7F283E;}
	.st1{fill:#231F20;}
</style>
<g>
	<g>
		<path class="st0" d="M51.7,136.5c4.6,0,7.6-1,8.9-2.9c1.4-1.9,2.1-4.6,2.1-8.3V58.4c0-3.8-0.8-6.3-2.4-7.5c-1.6-1.2-4.3-2-8.3-2.4
			V45h30.3l23.7,65.1h1L130.6,45h30.3v3.6c-4.1,0.4-6.9,1.2-8.3,2.6c-1.5,1.4-2.2,4.8-2.2,10.2v62.2c0,5.2,0.7,8.6,2.2,10.2
			c1.5,1.6,4.3,2.5,8.3,2.7v3.6h-40v-3.6c3.6-0.1,6.2-0.8,8.1-2.1c1.8-1.3,2.7-4,2.7-8.3V57.3h-0.9L101.3,140h-3.2L68.3,59h-0.5
			v63.6c0,4.7,0.7,8.1,2.2,10.3c1.5,2.2,4.8,3.4,9.9,3.6v3.6H51.7V136.5z"/>
	</g>
	<g>
		<path class="st0" d="M221.4,77.4c6.2,7,9.3,16.1,9.3,27.2c0,11.1-3.1,20.2-9.3,27.2c-6.1,6.9-13.6,10.3-22.7,10.3
			c-9.6,0-17.5-3.8-23.6-11.3c-5.7-7.1-8.5-15.6-8.5-25.7c0-11.1,3-20.1,8.9-27.3c6-7.2,13.7-10.8,23.2-10.8
			C207.8,67.1,215.3,70.6,221.4,77.4z M212.6,124.5c1.4-5.1,2-11.7,2-19.9c0-11.2-1.4-19.7-4.3-25.4c-2.9-5.7-6.8-8.6-11.7-8.6
			c-6.8,0-11.5,4.8-14,14.3c-1.3,5-2,11.6-2,19.7c0,8.2,0.7,14.8,2,19.9c2.5,9.4,7.2,14.1,14,14.1
			C205.4,138.6,210.1,133.9,212.6,124.5z"/>
		<path class="st0" d="M235.3,137.4c3.3-0.1,5.5-0.9,6.5-2.2c1-1.4,1.5-3.4,1.5-6.2V79c-2.8-3.6-4.5-5.7-5.1-6.4
			c-0.6-0.6-1.5-1-2.6-1.2v-2.7h19.1l31,44.1h0.4v-31c0-3.6-0.6-6.1-1.7-7.7c-1.1-1.5-3.3-2.4-6.7-2.8v-2.7h19.4v2.7
			c-2.8,0.5-4.7,1.3-5.7,2.2c-1,0.9-1.4,3-1.4,6.2V142h-2.5l-39.7-56.4h-0.6V127c0,3.2,0.4,5.5,1.1,6.9c1.2,2.2,3.7,3.3,7.4,3.5v2.7
			h-20.4V137.4z"/>
		<path class="st0" d="M300.5,137.4c2.6-0.1,4.4-0.4,5.5-1.1c1.8-1.1,2.7-3.2,2.7-6.3V78.8c0-3.1-0.9-5.2-2.6-6.2
			c-1.1-0.6-2.9-1-5.6-1.2v-2.7h31.6v2.7c-2.8,0.1-4.8,0.5-5.8,1.1c-1.8,1.1-2.6,3.2-2.6,6.3v51.1c0,3,0.7,4.9,2.1,5.9
			c1.4,1,3.5,1.5,6.3,1.5v2.7h-31.6V137.4z"/>
		<path class="st0" d="M336.6,68.7h54.3L391,90h-2.6c-0.9-7.6-3.3-12.8-7.3-15.4c-2.3-1.5-5.6-2.3-10.1-2.4v55.6
			c0,3.9,0.6,6.5,1.7,7.7c1.2,1.3,3.6,1.9,7.2,1.9v2.7h-32.2v-2.7c3.5,0,5.9-0.6,7-1.9c1.2-1.3,1.7-3.9,1.7-7.7V72.1
			c-4.4,0.1-7.8,0.9-10.1,2.4c-4.3,2.8-6.8,7.9-7.3,15.4h-2.6L336.6,68.7z"/>
		<path class="st0" d="M450.5,77.4c6.2,7,9.3,16.1,9.3,27.2c0,11.1-3.1,20.2-9.3,27.2c-6.1,6.9-13.6,10.3-22.7,10.3
			c-9.6,0-17.5-3.8-23.6-11.3c-5.7-7.1-8.5-15.6-8.5-25.7c0-11.1,3-20.1,8.9-27.3c6-7.2,13.7-10.8,23.2-10.8
			C436.9,67.1,444.5,70.6,450.5,77.4z M441.8,124.5c1.4-5.1,2-11.7,2-19.9c0-11.2-1.4-19.7-4.3-25.4c-2.9-5.7-6.8-8.6-11.7-8.6
			c-6.8,0-11.5,4.8-14,14.3c-1.3,5-2,11.6-2,19.7c0,8.2,0.7,14.8,2,19.9c2.5,9.4,7.2,14.1,14,14.1
			C434.6,138.6,439.2,133.9,441.8,124.5z"/>
	</g>
	<g>
		<path class="st0" d="M464.9,136.5c4.1-0.2,6.9-1.1,8.3-2.7c1.5-1.6,2.2-4.9,2.2-10.2V61.4c0-5.4-0.9-9-2.6-10.6
			c-1.2-1.1-3.8-1.8-7.9-2.3V45h38.7c8,0,14.5,1,19.5,3c9.6,4,14.5,11.2,14.5,21.5c0,7.6-2.5,13.7-7.6,18.1
			c-3.9,3.3-7.9,5.4-12.2,6.3l25.6,40c0.7,1.1,1.4,1.8,2.1,2.2c0.7,0.3,1.7,0.6,2.8,0.7v3.4h-25.1l-28.1-44h0v27.5
			c0,4.9,0.7,8.3,2.1,10s4.2,2.7,8.5,2.9v3.6h-40.7V136.5z M511.9,87.7c3.4-2.4,5.1-8.1,5.1-17c0-5.4-0.6-9.8-1.9-12.9
			c-2.2-5.4-6.3-8-12.2-8c-3.2,0-5.3,0.5-6.3,1.4c-1,0.9-1.5,2.5-1.5,4.6v35.8C502.9,91.4,508.5,90.1,511.9,87.7z"/>
	</g>
	<g>
		<path class="st1" d="M169.9,33.4h23.7l0.2,7.1h-1c-0.5-2.2-1.1-3.7-1.9-4.4s-2.4-1-4.8-1h-2.3v21.5c0,1.6,0.3,2.6,0.8,3
			s1.6,0.6,3.3,0.8v0.8h-12.2v-0.8c1.8-0.1,2.9-0.4,3.3-0.9s0.7-1.6,0.7-3.4v-21h-2.4c-2.3,0-3.9,0.3-4.7,1s-1.5,2.1-1.9,4.4h-1
			L169.9,33.4z"/>
		<path class="st1" d="M195.4,60.5c1.6-0.2,2.7-0.5,3.1-0.9s0.6-1.5,0.6-3.4V38c0-1.5-0.2-2.5-0.7-2.9s-1.5-0.7-3-0.8v-0.8H207v0.8
			c-1.5,0.1-2.5,0.4-3,0.8c-0.5,0.5-0.7,1.4-0.7,2.9v8.2h12.8V38c0-1.5-0.2-2.5-0.7-2.9s-1.5-0.7-3-0.8v-0.8H224v0.8
			c-1.5,0.1-2.5,0.4-3,0.8s-0.7,1.4-0.7,2.9v18.7c0,1.5,0.2,2.5,0.7,2.9c0.5,0.4,1.5,0.7,3,0.8v0.8h-11.6v-0.8
			c1.7-0.2,2.7-0.5,3.1-0.9s0.6-1.6,0.6-3.4V48h-12.8v8.7c0,1.5,0.2,2.5,0.7,2.9c0.5,0.4,1.5,0.7,3,0.8v0.8h-11.6V60.5z"/>
		<path class="st1" d="M225.5,60.5c1.5-0.2,2.5-0.4,3-0.8c0.5-0.4,0.7-1.4,0.7-2.9V38c0-1.5-0.2-2.5-0.7-2.9s-1.5-0.7-3-0.9v-0.8
			h22.3l0.1,6h-1.1c-0.4-1.9-0.9-3-1.6-3.6c-0.7-0.5-2.3-0.8-4.8-0.8h-5.7c-0.6,0-1,0.1-1.1,0.3s-0.2,0.6-0.2,1.1v9.4h6.5
			c1.8,0,2.9-0.3,3.4-0.8c0.5-0.5,0.9-1.6,1.2-3.2h1v9.7h-1c-0.3-1.6-0.7-2.7-1.2-3.2s-1.6-0.8-3.4-0.8h-6.5v10.4
			c0,0.8,0.3,1.3,0.8,1.5c0.5,0.2,2.1,0.2,4.7,0.2c2.8,0,4.9-0.3,6.3-0.9c1.4-0.6,2.6-2.1,3.7-4.5h1.2l-1.9,7.1h-22.7V60.5z"/>
		<path class="st1" d="M261.9,60.5c1.7-0.1,2.8-0.4,3.3-0.8c0.5-0.4,0.7-1.4,0.7-3V38c0-1.5-0.2-2.5-0.7-3c-0.5-0.4-1.6-0.7-3.3-0.8
			v-0.8h11.8c3.4,0,6,0.5,8,1.6c2,1.1,3,2.9,3,5.6c0,2-0.7,3.5-2.1,4.5c-0.8,0.6-1.9,1.1-3.5,1.5c1.9,0.5,3.6,1.2,4.9,2.3
			c1.4,1.1,2.1,2.6,2.1,4.6c0,3.3-1.5,5.5-4.5,6.8c-1.6,0.6-3.6,1-5.9,1h-13.7V60.5z M277.7,45.2c1.8-0.8,2.7-2.3,2.7-4.4
			c0-2.5-1-4.2-3.1-5.1c-1.1-0.5-2.9-0.7-5.2-0.7c-0.9,0-1.4,0.1-1.6,0.2c-0.2,0.2-0.3,0.6-0.3,1.2V46l4-0.1
			C275.6,45.9,276.8,45.6,277.7,45.2z M279.1,58.5c1.4-0.8,2.2-2.4,2.2-4.8c0-2.4-0.8-4-2.5-4.8s-3.9-1.3-6.5-1.3c-0.6,0-1,0-1.2,0
			s-0.4,0-0.8,0V58c0,0.7,0.2,1.2,0.6,1.4s1.4,0.3,2.9,0.3C275.8,59.7,277.6,59.3,279.1,58.5z"/>
		<path class="st1" d="M294.7,36.6c2.6-2.5,5.8-3.7,9.5-3.7c3.8,0,7,1.2,9.6,3.7c2.8,2.7,4.2,6.3,4.2,10.8c0,4.6-1.4,8.2-4.3,10.9
			c-2.6,2.4-5.7,3.6-9.4,3.6c-3.9,0-7.2-1.3-9.8-4c-2.6-2.7-4-6.2-4-10.5C290.5,42.9,291.9,39.3,294.7,36.6z M297.8,57.1
			c1.7,2.1,3.9,3.2,6.4,3.2c2.5,0,4.6-1,6.4-3.1c1.8-2.1,2.6-5.3,2.6-9.9c0-4.6-0.9-7.9-2.7-9.9c-1.8-2-3.9-3.1-6.3-3.1
			c-2.5,0-4.7,1.1-6.4,3.2s-2.6,5.4-2.6,9.8C295.2,51.8,296.1,55,297.8,57.1z"/>
		<path class="st1" d="M332,33.4v0.8c-1.6,0.1-2.7,0.4-3.1,0.8s-0.7,1.4-0.7,3v13.4c0,2.2,0.3,3.9,0.9,5.1c1.1,2.2,3.2,3.4,6.4,3.4
			c3.4,0,5.7-1.1,6.9-3.4c0.7-1.3,1-3.3,1-5.9V39.6c0-2.3-0.3-3.7-0.8-4.3s-1.6-0.9-3.1-1.1v-0.8h9.7v0.8c-1.6,0.2-2.7,0.6-3.2,1.2
			c-0.5,0.6-0.7,2-0.7,4.2v10.9c0,2.9-0.4,5.2-1.3,6.8c-1.6,3-4.8,4.5-9.4,4.5c-4.5,0-7.6-1.5-9.3-4.4c-0.9-1.6-1.3-3.7-1.3-6.3V38
			c0-1.5-0.2-2.5-0.7-2.9c-0.5-0.4-1.5-0.7-3.1-0.8v-0.8H332z"/>
		<path class="st1" d="M350.3,60.5c1.5-0.2,2.5-0.4,3-0.8c0.5-0.4,0.7-1.4,0.7-2.9V38c0-1.5-0.2-2.5-0.7-2.9s-1.5-0.7-3-0.9v-0.8
			h11.9v0.8c-1.5,0.1-2.6,0.3-3.1,0.8c-0.5,0.4-0.8,1.3-0.8,2.7v20.2c0,0.5,0.1,0.8,0.2,1.1c0.2,0.3,0.5,0.4,1,0.5
			c0.3,0,0.6,0.1,1,0.1c0.3,0,1,0,2,0c3.7,0,6.3-0.3,7.6-0.9c1.3-0.6,2.6-2.2,3.8-4.7h1.1l-2.1,7.3h-22.6V60.5z"/>
		<path class="st1" d="M376.2,60.5c1.5-0.2,2.5-0.4,3-0.8c0.5-0.4,0.7-1.4,0.7-2.9V38c0-1.5-0.2-2.5-0.7-3s-1.5-0.7-3-0.8v-0.8h11.3
			c3.8,0,7,0.6,9.7,1.9c4.8,2.3,7.1,6.3,7.1,12.1c0,2.1-0.4,4.1-1.3,6s-2.1,3.5-3.9,4.8c-1.1,0.8-2.2,1.4-3.4,1.9
			c-2.1,0.8-4.8,1.2-7.9,1.2h-11.7V60.5z M384.7,59.3c0.3,0.2,1,0.3,2.1,0.3c3.3,0,6-0.6,8.1-1.9c3.3-2,4.9-5.4,4.9-10.2
			c0-4.3-1.3-7.6-4-9.7c-2.3-1.9-5.3-2.8-9.1-2.8c-0.9,0-1.6,0.1-1.9,0.3c-0.3,0.2-0.5,0.7-0.5,1.4V58
			C384.2,58.7,384.3,59.1,384.7,59.3z"/>
		<path class="st1" d="M406.3,60.5c1.5-0.2,2.5-0.4,3-0.8c0.5-0.4,0.7-1.4,0.7-2.9V38c0-1.5-0.2-2.5-0.7-2.9s-1.5-0.7-3-0.9v-0.8
			h22.3l0.1,6h-1.1c-0.4-1.9-0.9-3-1.6-3.6c-0.7-0.5-2.3-0.8-4.8-0.8h-5.7c-0.6,0-1,0.1-1.1,0.3c-0.1,0.2-0.2,0.6-0.2,1.1v9.4h6.5
			c1.8,0,2.9-0.3,3.4-0.8c0.5-0.5,0.9-1.6,1.2-3.2h1v9.7h-1c-0.3-1.6-0.7-2.7-1.2-3.2s-1.6-0.8-3.4-0.8h-6.5v10.4
			c0,0.8,0.3,1.3,0.8,1.5c0.5,0.2,2.1,0.2,4.7,0.2c2.8,0,4.9-0.3,6.3-0.9s2.6-2.1,3.7-4.5h1.2l-1.9,7.1h-22.7V60.5z"/>
		<path class="st1" d="M432,60.5c1.6-0.1,2.6-0.5,3-0.9s0.6-1.6,0.6-3.3V38c0-1.5-0.2-2.4-0.7-2.9s-1.4-0.7-2.9-0.9v-0.8h11.6
			c2.4,0,4.4,0.3,6,0.9c3.1,1.2,4.6,3.3,4.6,6.4c0,2.1-0.7,3.7-2,4.8c-1.4,1.1-3.2,1.9-5.5,2.2l8.7,10.7c0.5,0.7,1.1,1.1,1.6,1.4
			s1.2,0.5,2.1,0.6v0.8h-6.8l-10.5-12.9l-1.8,0.1v8.3c0,1.6,0.2,2.5,0.7,3c0.5,0.4,1.5,0.7,3.1,0.8v0.8H432V60.5z M446.3,45.9
			c2.2-0.9,3.3-2.6,3.3-5.2c0-2.4-1-4.1-3-5c-1.1-0.5-2.5-0.7-4.2-0.7c-1.2,0-1.9,0.1-2.2,0.3c-0.3,0.2-0.4,0.6-0.4,1.2v10.3
			C442.9,46.7,445,46.4,446.3,45.9z"/>
	</g>
</g>
</svg>
