<?xml version="1.0" encoding="utf-8"?>
<!-- Generator: Adobe Illustrator 23.0.6, SVG Export Plug-In . SVG Version: 6.00 Build 0)  -->
<svg version="1.1" id="Layer_1" xmlns="http://www.w3.org/2000/svg" xmlns:xlink="http://www.w3.org/1999/xlink" x="0px" y="0px"
	 viewBox="0 0 355.1 70.6" style="enable-background:new 0 0 355.1 70.6;" xml:space="preserve">
<style type="text/css">
	.st0{fill:#0073B1;}
</style>
<g>
	<path class="st0" d="M346.5,59.4V36.2c0-5-1.3-15.2-13.8-15.2c-6.6,0-9,3.4-10.3,5.2v-4H312v37.2h11.1V39.2c0-3.8,0.9-7.8,6.4-7.8
		c5,0,5.8,3.6,5.8,7.7v20.3H346.5L346.5,59.4z M296.8,59.4H308V22.2h-11.1v4c-1.5-2.3-4.9-5.2-11-5.2c-9.9,0-18.7,7.6-18.7,19.8
		c0,10.7,6.9,19.9,18.7,19.9c4.4,0,9-1.7,11-5.3V59.4L296.8,59.4z M296.8,41.4c-0.1,1.7-0.6,3.3-1.5,4.8c-1.4,2.3-3.8,4.2-7.8,4.2
		c-6.7,0-9.2-5.9-9.2-9.3v-0.1c0-4.2,2.8-9.6,9.2-9.6c4.7,0,7.2,2.6,8.4,5.2C296.6,38.1,297,39.7,296.8,41.4L296.8,41.4z
		 M253.7,59.4h11.1V22.2h-11.1V59.4L253.7,59.4z M253.7,18.3h11.1V9.8h-11.1V18.3L253.7,18.3z M239.9,59.4h11.1V9.8h-11.1V59.4
		L239.9,59.4z M226.9,59.4h10.4V22.2h-11.1v20.2c0,3.8-0.9,7.8-6.4,7.8c-5,0-5.9-3.6-5.9-7.7V22.2h-11.1v23.3
		c0,5,1.3,15.2,13.9,15.2c6.7,0,9-3.4,10.3-5.2V59.4L226.9,59.4z M200.5,40.8c0-9.1-6.5-19.8-20-19.8c-13.5,0-20,10.7-20,19.7v0.1
		c0,9.1,6.5,19.8,20,19.8C194,60.6,200.5,49.9,200.5,40.8L200.5,40.8z M189.4,40.8c0,5.4-4.1,9.4-8.9,9.4c-4.8,0-8.9-4-8.9-9.3v-0.1
		c0-5.4,4.1-9.4,8.9-9.4C185.3,31.4,189.4,35.4,189.4,40.8L189.4,40.8z M140.6,32.4c0-1,0.8-2.5,3.1-2.5c3.3,0,3.4,2,3.5,2.8h10.9
		c-0.9-9.8-9.4-11.7-14.3-11.7c-7.7,0-14.4,4.9-14.4,12.6c0,5,4,8.2,8.8,9.7c7.1,2.7,9.9,3.1,9.9,5.6c0,1.8-2,2.9-3.9,2.9
		c-0.5,0-3.8,0-4.2-3.4H129c1,9.8,9.5,12.3,15.1,12.3c8.2,0,15.1-4.8,15.1-13c0-8-6.7-9.9-13-11.7C143.3,35.2,140.6,34,140.6,32.4
		L140.6,32.4z M109.8,32.4c0-1,0.8-2.5,3.2-2.5c3.3,0,3.4,2,3.5,2.8h10.9C126.4,22.9,118,21,113.1,21c-7.7,0-14.4,4.9-14.4,12.6
		c0,5,4,8.2,8.8,9.7c7.1,2.7,9.9,3.1,9.9,5.6c0,1.8-2,2.9-3.9,2.9c-0.5,0-3.8,0-4.2-3.4H98.2c1,9.8,9.5,12.3,15.1,12.3
		c8.2,0,15.1-4.8,15.1-13c0-8-6.7-9.9-13-11.7C112.6,35.2,109.8,34,109.8,32.4L109.8,32.4z M84.2,59.4h11.1V22.2H84.2V59.4
		L84.2,59.4z M84.2,18.3h11.1V9.8H84.2V18.3L84.2,18.3z M68.8,59.4h12.7V8.6H69.3L50.9,35.3V8.6H38.8L4.5,59.4h14.9l19.6-28.9v28.9
		h10.3l19.6-28.1V59.4L68.8,59.4z"/>
</g>
</svg>
